<svg xmlns="http://www.w3.org/2000/svg" viewBox="0 0 16 16" width="16" height="16">
	<style>
		tspan { white-space:pre }
		.shp0 { fill: #eeeeee } 
		.shp1 { fill: none } 
	</style>
	<g id="Layer">
		<path id="Layer" fill-rule="evenodd" class="shp0" d="M15.5 8C15.5 12.15 12.15 15.5 8 15.5C3.85 15.5 0.5 12.15 0.5 8C0.5 3.85 3.85 0.5 8 0.5C12.15 0.5 15.5 3.85 15.5 8ZM9.06 8L11.75 5.31L10.69 4.25L8 6.94L5.31 4.25L4.25 5.31L6.94 8L4.25 10.69L5.31 11.75L8 9.06L10.69 11.75L11.75 10.69L9.06 8Z" />
		<path id="Layer" fill-rule="evenodd" class="shp1" d="M-1 -1L17 -1L17 17L-1 17L-1 -1Z" />
	</g>
</svg>