<?xml version="1.0" encoding="utf-8"?>
<!-- Svg Vector Icons : http://www.onlinewebfonts.com/icon -->
<!DOCTYPE svg PUBLIC "-//W3C//DTD SVG 1.1//EN" "http://www.w3.org/Graphics/SVG/1.1/DTD/svg11.dtd">
<svg version="1.1" xmlns="http://www.w3.org/2000/svg" xmlns:xlink="http://www.w3.org/1999/xlink" x="0px" y="0px" viewBox="0 0 1000 1000" enable-background="new 0 0 1000 1000" xml:space="preserve">
<metadata> Svg Vector Icons : http://www.onlinewebfonts.com/icon </metadata>
<g><g transform="translate(0.000000,511.000000) scale(0.100000,-0.100000)"><path d="M5171.3,5001.3c-112.2-25.7-194-93.5-252.5-210.4c-51.4-98.2-53.8-128.6-53.8-647.6v-544.7l-51.4-9.4c-30.4-7-133.2-16.4-229.1-25.7c-397.4-30.4-902.4-175.3-1332.5-376.4C1886.8,2539.7,975,1202.5,869.8-307.7C720.2-2449.1,2211.7-4359,4327.4-4735.4c313.3-53.8,879-72.5,1187.6-35.1c692,81.8,1374.6,341.3,1945,743.4c334.3,233.8,834.6,745.8,1056.6,1080c334.3,502.6,598.5,1133.8,621.8,1486.8c25.7,385.7-191.7,743.4-547,902.4c-161.3,72.5-472.2,86.5-652.2,30.4c-299.2-95.8-507.3-320.3-610.1-666.3c-252.5-832.2-834.6-1428.3-1636.4-1676.2c-194-58.4-233.8-63.1-640.5-63.1c-404.4,0-446.5,4.7-642.9,63.1C3509.2-2594,2873.3-1876.3,2726-971.6c-79.5,490.9-4.7,960.8,226.8,1426c126.2,252.5,205.7,362.3,413.8,579.8c203.4,212.7,383.4,348.3,631.2,472.2c205.7,102.9,565.7,198.7,741.1,198.7H4865v-565.7c0-313.3,11.7-605.5,23.4-654.6c30.4-107.5,180-245.5,289.9-266.5c147.3-25.7,240.8,9.3,430.2,161.3c512,416.1,2251.2,1858.5,2335.4,1940.3c65.4,63.1,105.2,126.2,121.6,196.4c28,102.9,23.4,142.6-25.7,271.2c-18.7,44.4-434.8,404.4-1288.1,1110.4c-692,575.1-1283.4,1056.7-1311.5,1070.7C5365.3,5008.3,5260.1,5020,5171.3,5001.3z"/></g></g>
</svg>