<svg xmlns="http://www.w3.org/2000/svg" viewBox="0 0 1000 1000" width="1000" height="1000">
	<style>
		tspan { white-space:pre }
		.shp0 { fill: #eeeeee } 
	</style>
	<g id="Layer">
		<path id="Layer" fill-rule="evenodd" class="shp0" d="M867.5 224.4L867.5 255L132.5 255L132.5 224.4C132.5 173.6 173.7 132.5 224.4 132.5L314.45 132.5L325.2 55.5C328.7 30.5 352.2 10 377.5 10L622.5 10C647.7 10 671.3 30.5 674.7 55.5L685.57 132.5L775.6 132.5C826.4 132.5 867.5 173.6 867.5 224.4ZM384.8 71.2L371.3 167.9L628.7 167.9L615.2 71.2L384.8 71.2ZM846.7 377.3L796.5 929C793.4 962.6 763.4 990 729.7 990L270.3 990C236.6 990 206.6 962.5 203.5 929L153.4 377.3C150.4 343.7 175.4 316.3 209.1 316.3L790.9 316.3C824.6 316.3 849.7 343.7 846.7 377.3ZM377.5 438.8L255 438.8L285.6 867.5L377.5 867.5L377.5 438.8ZM561.3 438.8L438.8 438.8L438.8 867.5L561.3 867.5L561.3 438.8ZM745 438.8L622.5 438.8L622.5 867.5L714.4 867.5L745 438.8Z" />
	</g>
</svg>