<?xml version="1.0" encoding="utf-8"?>
<!-- Svg Vector Icons : http://www.onlinewebfonts.com/icon -->
<!DOCTYPE svg PUBLIC "-//W3C//DTD SVG 1.1//EN" "http://www.w3.org/Graphics/SVG/1.1/DTD/svg11.dtd">
<svg version="1.1" xmlns="http://www.w3.org/2000/svg" xmlns:xlink="http://www.w3.org/1999/xlink" x="0px" y="0px" viewBox="0 0 1000 1000" enable-background="new 0 0 1000 1000" xml:space="preserve">
<metadata> Svg Vector Icons : http://www.onlinewebfonts.com/icon </metadata>
<g><g transform="translate(0.000000,511.000000) scale(0.100000,-0.100000)"><path d="M3632.8,4988.8c-481.6-54.7-917-185.1-1367-412.2c-412.2-206.1-647.7-378.6-999-731.9c-353.3-351.2-525.8-586.8-731.9-999c-353.3-700.3-494.2-1444.8-412.2-2183c96.8-893.8,458.5-1682.5,1068.4-2321.8c1268.2-1333.3,3253.5-1613.1,4864.5-685.6l122,69.4L7435.2-3533c992.7-990.6,1268.2-1255.6,1308.1-1255.6c75.7,0,1156.7,1081,1156.7,1156.7c0,40-281.8,334.4-1255.6,1308.1L7386.8-1066l69.4,122c921.2,1600.4,649.9,3579.5-662.5,4843.4c-643.5,620.4-1444.8,992.7-2345,1089.4C4215.3,5016.1,3864.1,5014,3632.8,4988.8z M4568.6,3739.5C6122.8,3422,7088.2,1895.1,6692.8,376.7C6432-630.7,5622.3-1398.3,4598.1-1615c-309.1-65.2-782.3-65.2-1085.2,0C2413-1381.5,1601.2-559.2,1369.8,553.4c-52.6,248.2-52.6,765.5-2.1,1007.4C1628.5,2778.4,2549.7,3626,3780,3779.5C3925.1,3796.3,4404.6,3773.2,4568.6,3739.5z"/><path d="M3590.7,2204.3v-683.5h-683.5h-683.5l4.2-456.4l6.3-458.5l677.2-6.3l679.3-4.2l4.2-679.3l6.3-677.2h452.2h452.2l6.3,677.2l4.2,679.3l679.3,4.2l677.2,6.3v452.2v452.2l-677.2,6.3l-679.3,4.2l-4.2,679.3l-6.3,677.2l-456.4,6.3l-458.5,4.2V2204.3z"/></g></g>
</svg>