<?xml version="1.0" encoding="utf-8"?>
<!-- Svg Vector Icons : http://www.onlinewebfonts.com/icon -->
<!DOCTYPE svg PUBLIC "-//W3C//DTD SVG 1.1//EN" "http://www.w3.org/Graphics/SVG/1.1/DTD/svg11.dtd">
<svg version="1.1" xmlns="http://www.w3.org/2000/svg" xmlns:xlink="http://www.w3.org/1999/xlink" x="0px" y="0px" viewBox="0 0 1000 1000" enable-background="new 0 0 1000 1000" xml:space="preserve">
<metadata> Svg Vector Icons : http://www.onlinewebfonts.com/icon </metadata>
<g><g transform="translate(0.000000,59.000000) scale(0.100000,-0.100000)"><path d="M4657.8,64.3C3405.6-586.8,2788-1488.3,2704.5-2874c-50.1-684.5,16.6-1235.5,183.6-1619.5l250.4-584.3l-1519.2-1536L100-8166.4l567.6-584.3l567.6-584.3l1536,1519.2l1535.9,1536l684.5-283.8C7345.8-7498.6,9900-5712.2,9900-3157.9c0,2070.2-1619.3,3673-3739.6,3673C5843.2,515.1,5158.6,314.7,4657.8,64.3z M7512.8-737c267.1-133.5,701.1-534.3,951.5-868.2c384.1-500.9,467.6-767.9,467.6-1552.6c-16.8-784.7-100.3-1068.5-484.2-1586c-267.1-333.9-734.6-717.9-1035.1-851.4C4924.9-6630.4,2621-3892.4,4090.2-1638.6C4774.7-586.8,6394-152.7,7512.8-737z"/><path d="M4674.5-3157.9v-500.8h1669.6h1669.5v500.8v500.9H6344.1H4674.5V-3157.9z"/></g></g>
</svg>